<?xml version="1.0" standalone="no"?>
<!DOCTYPE svg PUBLIC "-//W3C//DTD SVG 20010904//EN"
 "http://www.w3.org/TR/2001/REC-SVG-20010904/DTD/svg10.dtd">
<svg version="1.0" xmlns="http://www.w3.org/2000/svg"
 width="216.000000pt" height="234.000000pt" viewBox="0 0 216.000000 234.000000"
 preserveAspectRatio="xMidYMid meet">

<g transform="translate(0.000000,234.000000) scale(0.100000,-0.100000)"
fill="#000000" stroke="none">
<path d="M970 2243 l0 -100 -31 -7 c-17 -3 -44 -6 -60 -6 l-29 0 0 -85 c0 -84
0 -85 -27 -91 -16 -3 -53 -14 -84 -24 l-56 -18 -42 69 c-26 42 -50 69 -60 69
-26 0 -112 -46 -153 -82 l-37 -33 44 -68 45 -67 -64 -63 -64 -63 -75 38 -76
38 -27 -33 c-27 -32 -84 -142 -84 -162 0 -6 29 -28 65 -49 36 -21 67 -41 69
-45 7 -10 -37 -155 -49 -163 -5 -4 -31 -8 -56 -8 -26 0 -60 -3 -77 -6 -29 -6
-31 -10 -38 -60 -3 -30 -3 -78 0 -108 l7 -55 87 -6 88 -7 18 -77 c10 -42 20
-81 22 -88 3 -7 -23 -27 -65 -48 -39 -19 -71 -41 -71 -49 0 -20 57 -128 88
-164 l27 -32 69 40 c37 22 71 39 75 39 3 -1 32 -30 64 -64 l59 -64 -41 -68
c-32 -53 -38 -70 -28 -80 23 -23 180 -113 188 -108 4 3 21 29 38 58 17 28 35
58 40 66 7 11 23 10 95 -9 l86 -23 0 -78 c0 -86 0 -86 77 -93 l38 -4 3 -101 3
-101 37 0 c144 0 336 46 480 115 732 351 897 1313 321 1883 -203 202 -455 315
-746 338 l-93 7 0 -100z m103 -203 c5 -41 13 -78 19 -81 14 -9 179 -52 182
-48 2 2 22 31 46 64 24 33 45 62 46 64 5 6 154 -82 154 -91 0 -5 -16 -40 -35
-78 l-35 -70 47 -51 c26 -28 59 -59 74 -70 26 -18 27 -18 98 12 40 17 79 28
86 25 18 -6 99 -146 90 -154 -3 -4 -37 -25 -73 -48 -76 -47 -75 -41 -36 -166
l25 -78 83 0 84 0 7 -50 c4 -27 4 -72 0 -100 l-7 -50 -84 0 -83 0 -32 -100
c-18 -55 -30 -102 -28 -104 2 -2 37 -25 77 -50 82 -53 81 -40 10 -152 l-38
-61 -73 38 c-39 21 -75 39 -79 39 -4 0 -38 -28 -77 -61 l-71 -62 42 -79 43
-80 -25 -20 c-26 -21 -134 -78 -147 -78 -4 0 -26 29 -48 65 -22 36 -45 65 -53
65 -7 0 -51 -10 -97 -21 l-85 -21 0 -84 0 -84 -50 0 -50 0 0 160 c0 100 -4
160 -10 160 -5 0 -10 14 -10 30 0 40 -18 38 -22 -2 -2 -28 -7 -33 -28 -33 -21
0 -26 6 -31 35 -6 35 -14 29 -21 -15 -2 -15 -11 -20 -33 -20 -27 0 -30 4 -33
33 -4 42 -29 42 -40 0 -4 -18 -16 -34 -25 -36 -14 -3 -17 5 -17 40 0 24 4 70
10 102 5 33 8 62 5 64 -2 2 -25 -1 -52 -6 -64 -14 -82 -1 -129 93 -45 91 -50
160 -17 217 l22 37 -30 118 c-26 99 -30 133 -27 214 3 84 8 104 36 162 66 134
185 206 385 233 l47 6 0 -464 0 -465 25 -23 c25 -24 45 -75 45 -118 l0 -23
-26 20 c-15 12 -31 21 -35 21 -5 0 -9 -36 -9 -80 0 -47 4 -80 10 -80 6 0 10
-13 10 -30 0 -25 4 -30 25 -30 21 0 25 5 25 30 0 39 19 39 27 0 4 -25 10 -30
34 -30 26 0 29 4 29 30 0 42 35 42 44 0 3 -19 12 -30 22 -30 15 0 16 10 10 84
-3 46 -9 92 -12 101 -6 14 1 15 58 9 62 -6 66 -5 86 20 32 41 61 108 74 168
10 50 9 58 -14 109 l-25 54 29 115 c53 208 30 353 -71 463 -67 72 -213 137
-308 137 l-33 0 0 161 0 160 43 -3 42 -3 8 -75z m215 -1026 c33 -23 30 -75 -9
-119 -26 -29 -38 -35 -71 -35 -23 0 -58 5 -79 11 -37 12 -109 63 -109 78 0 18
171 77 230 80 9 1 26 -6 38 -15z"/>
<path d="M624 1005 c-27 -27 -28 -33 -14 -70 17 -44 58 -75 100 -75 67 0 180
54 180 86 0 20 -107 60 -208 78 -27 5 -38 1 -58 -19z"/>
<path d="M922 838 c-18 -31 -37 -108 -26 -108 3 0 18 10 34 22 26 19 30 28 30
70 0 56 -11 61 -38 16z"/>
</g>
</svg>
